<svg width="33" height="10" viewBox="0 0 33 10" fill="none" xmlns="http://www.w3.org/2000/svg">
<path d="M3.75 9.85125C3.10795 9.85125 2.56108 9.67654 2.10938 9.3271C1.65767 8.97483 1.3125 8.46489 1.07386 7.79727C0.835227 7.12682 0.715909 6.31716 0.715909 5.3683C0.715909 4.42512 0.835227 3.61972 1.07386 2.9521C1.31534 2.28165 1.66193 1.77029 2.11364 1.41801C2.56818 1.0629 3.11364 0.885342 3.75 0.885342C4.38636 0.885342 4.9304 1.0629 5.3821 1.41801C5.83665 1.77029 6.18324 2.28165 6.42188 2.9521C6.66335 3.61972 6.78409 4.42512 6.78409 5.3683C6.78409 6.31716 6.66477 7.12682 6.42614 7.79727C6.1875 8.46489 5.84233 8.97483 5.39062 9.3271C4.93892 9.67654 4.39205 9.85125 3.75 9.85125ZM3.75 8.91375C4.38636 8.91375 4.88068 8.60693 5.23295 7.9933C5.58523 7.37966 5.76136 6.50466 5.76136 5.3683C5.76136 4.61262 5.6804 3.96915 5.51847 3.4379C5.35938 2.90665 5.12926 2.50182 4.82812 2.22341C4.52983 1.945 4.17045 1.8058 3.75 1.8058C3.11932 1.8058 2.62642 2.11688 2.27131 2.73904C1.91619 3.35835 1.73864 4.23477 1.73864 5.3683C1.73864 6.12398 1.81818 6.76602 1.97727 7.29443C2.13636 7.82284 2.36506 8.22483 2.66335 8.5004C2.96449 8.77597 3.3267 8.91375 3.75 8.91375ZM11.25 9.85125C10.608 9.85125 10.0611 9.67654 9.60938 9.3271C9.15767 8.97483 8.8125 8.46489 8.57386 7.79727C8.33523 7.12682 8.21591 6.31716 8.21591 5.3683C8.21591 4.42512 8.33523 3.61972 8.57386 2.9521C8.81534 2.28165 9.16193 1.77029 9.61364 1.41801C10.0682 1.0629 10.6136 0.885342 11.25 0.885342C11.8864 0.885342 12.4304 1.0629 12.8821 1.41801C13.3366 1.77029 13.6832 2.28165 13.9219 2.9521C14.1634 3.61972 14.2841 4.42512 14.2841 5.3683C14.2841 6.31716 14.1648 7.12682 13.9261 7.79727C13.6875 8.46489 13.3423 8.97483 12.8906 9.3271C12.4389 9.67654 11.892 9.85125 11.25 9.85125ZM11.25 8.91375C11.8864 8.91375 12.3807 8.60693 12.733 7.9933C13.0852 7.37966 13.2614 6.50466 13.2614 5.3683C13.2614 4.61262 13.1804 3.96915 13.0185 3.4379C12.8594 2.90665 12.6293 2.50182 12.3281 2.22341C12.0298 1.945 11.6705 1.8058 11.25 1.8058C10.6193 1.8058 10.1264 2.11688 9.77131 2.73904C9.41619 3.35835 9.23864 4.23477 9.23864 5.3683C9.23864 6.12398 9.31818 6.76602 9.47727 7.29443C9.63636 7.82284 9.86506 8.22483 10.1634 8.5004C10.4645 8.77597 10.8267 8.91375 11.25 8.91375ZM16.6534 8.61546C16.4432 8.61546 16.2628 8.54017 16.1122 8.3896C15.9616 8.23904 15.8864 8.05864 15.8864 7.84841C15.8864 7.63818 15.9616 7.45779 16.1122 7.30722C16.2628 7.15665 16.4432 7.08137 16.6534 7.08137C16.8636 7.08137 17.044 7.15665 17.1946 7.30722C17.3452 7.45779 17.4205 7.63818 17.4205 7.84841C17.4205 7.98762 17.3849 8.11546 17.3139 8.23193C17.2457 8.34841 17.1534 8.44216 17.0369 8.51318C16.9233 8.58137 16.7955 8.61546 16.6534 8.61546ZM16.6534 4.20068C16.4432 4.20068 16.2628 4.1254 16.1122 3.97483C15.9616 3.82426 15.8864 3.64387 15.8864 3.43364C15.8864 3.22341 15.9616 3.04301 16.1122 2.89245C16.2628 2.74188 16.4432 2.66659 16.6534 2.66659C16.8636 2.66659 17.044 2.74188 17.1946 2.89245C17.3452 3.04301 17.4205 3.22341 17.4205 3.43364C17.4205 3.57284 17.3849 3.70068 17.3139 3.81716C17.2457 3.93364 17.1534 4.02739 17.0369 4.09841C16.9233 4.16659 16.7955 4.20068 16.6534 4.20068ZM22.0547 9.85125C21.4126 9.85125 20.8658 9.67654 20.4141 9.3271C19.9624 8.97483 19.6172 8.46489 19.3786 7.79727C19.1399 7.12682 19.0206 6.31716 19.0206 5.3683C19.0206 4.42512 19.1399 3.61972 19.3786 2.9521C19.62 2.28165 19.9666 1.77029 20.4183 1.41801C20.8729 1.0629 21.4183 0.885342 22.0547 0.885342C22.6911 0.885342 23.2351 1.0629 23.6868 1.41801C24.1413 1.77029 24.4879 2.28165 24.7266 2.9521C24.968 3.61972 25.0888 4.42512 25.0888 5.3683C25.0888 6.31716 24.9695 7.12682 24.7308 7.79727C24.4922 8.46489 24.147 8.97483 23.6953 9.3271C23.2436 9.67654 22.6967 9.85125 22.0547 9.85125ZM22.0547 8.91375C22.6911 8.91375 23.1854 8.60693 23.5376 7.9933C23.8899 7.37966 24.0661 6.50466 24.0661 5.3683C24.0661 4.61262 23.9851 3.96915 23.8232 3.4379C23.6641 2.90665 23.4339 2.50182 23.1328 2.22341C22.8345 1.945 22.4751 1.8058 22.0547 1.8058C21.424 1.8058 20.9311 2.11688 20.576 2.73904C20.2209 3.35835 20.0433 4.23477 20.0433 5.3683C20.0433 6.12398 20.1229 6.76602 20.282 7.29443C20.4411 7.82284 20.6697 8.22483 20.968 8.5004C21.2692 8.77597 21.6314 8.91375 22.0547 8.91375ZM29.5547 9.85125C28.9126 9.85125 28.3658 9.67654 27.9141 9.3271C27.4624 8.97483 27.1172 8.46489 26.8786 7.79727C26.6399 7.12682 26.5206 6.31716 26.5206 5.3683C26.5206 4.42512 26.6399 3.61972 26.8786 2.9521C27.12 2.28165 27.4666 1.77029 27.9183 1.41801C28.3729 1.0629 28.9183 0.885342 29.5547 0.885342C30.1911 0.885342 30.7351 1.0629 31.1868 1.41801C31.6413 1.77029 31.9879 2.28165 32.2266 2.9521C32.468 3.61972 32.5888 4.42512 32.5888 5.3683C32.5888 6.31716 32.4695 7.12682 32.2308 7.79727C31.9922 8.46489 31.647 8.97483 31.1953 9.3271C30.7436 9.67654 30.1967 9.85125 29.5547 9.85125ZM29.5547 8.91375C30.1911 8.91375 30.6854 8.60693 31.0376 7.9933C31.3899 7.37966 31.5661 6.50466 31.5661 5.3683C31.5661 4.61262 31.4851 3.96915 31.3232 3.4379C31.1641 2.90665 30.9339 2.50182 30.6328 2.22341C30.3345 1.945 29.9751 1.8058 29.5547 1.8058C28.924 1.8058 28.4311 2.11688 28.076 2.73904C27.7209 3.35835 27.5433 4.23477 27.5433 5.3683C27.5433 6.12398 27.6229 6.76602 27.782 7.29443C27.9411 7.82284 28.1697 8.22483 28.468 8.5004C28.7692 8.77597 29.1314 8.91375 29.5547 8.91375Z" fill="#454545"/>
</svg>
